<svg xmlns="http://www.w3.org/2000/svg" version="1.1" xmlns:xlink="http://www.w3.org/1999/xlink" width="512" height="512" x="0" y="0" viewBox="0 0 512 512" style="enable-background:new 0 0 512 512" xml:space="preserve"><g><path d="M192.8 145.9c-2.4-2.2-2.6-6-.4-8.4s6-2.6 8.4-.4l26.6 24.4c2.6 2.4 2.6 6.5 0 8.8l-26.6 24.4c-2.4 2.2-6.2 2-8.4-.4s-2.1-6.2.4-8.4l21.9-20zm-34.6 50.4c-1.4 3-5 4.2-8 2.8s-4.2-5-2.8-8l26.9-55.7c1.4-3 5-4.2 8-2.8s4.2 5 2.8 8zm-26.5-59.2c2.4-2.2 6.2-2.1 8.4.4 2.2 2.4 2.1 6.2-.4 8.4l-21.9 20 21.9 20c2.4 2.2 2.6 6 .4 8.4s-6 2.6-8.4.4L105 170.3c-2.6-2.4-2.6-6.4 0-8.8zm214.4 170.3c25.7 0 46.5 20.8 46.5 46.5s-20.8 46.5-46.5 46.5-46.5-20.8-46.5-46.5 20.8-46.5 46.5-46.5zm24.4 22.1c-13.5-13.5-35.3-13.5-48.8 0s-13.5 35.3 0 48.8 35.3 13.5 48.8 0c13.5-13.4 13.5-35.3 0-48.8zm-37.6-67.7h26.3c3.3 0 6 2.7 6 6v12.4c6.8 1.8 13.4 4.5 19.4 8.1l8.7-8.7c2.4-2.4 6.2-2.4 8.5 0l18.6 18.6c2.3 2.3 2.3 6.1 0 8.5l-8.8 8.7c3.5 6.1 6.3 12.6 8.1 19.4h12.4c3.3 0 6 2.7 6 6v26.3c0 3.5-2.8 6.2-6.5 6h-11.8c-1.8 6.8-4.5 13.4-8.1 19.5l8.8 8.7c2.3 2.4 2.3 6.2 0 8.5l-18.6 18.6c-2.4 2.3-6.2 2.3-8.5 0l-8.7-8.8c-6.1 3.6-12.6 6.3-19.4 8.1v12.4c0 3.3-2.7 6-6 6H333c-3.3 0-6-2.7-6-6v-12.4c-6.8-1.8-13.4-4.5-19.4-8.1l-8.7 8.8c-2.4 2.3-6.2 2.3-8.5 0l-18.6-18.6c-2.4-2.4-2.4-6.2 0-8.5l8.7-8.7c-3.5-6.1-6.3-12.6-8.1-19.4H260c-3.3 0-6-2.7-6-6v-26.3c0-3.3 2.7-6 6-6h12.4c1.8-6.8 4.5-13.4 8.1-19.4l-8.7-8.7c-2.4-2.4-2.4-6.2 0-8.5l18.6-18.6c2.3-2.4 6.1-2.4 8.5 0l8.7 8.7c6.1-3.5 12.6-6.3 19.5-8.1v-12.4c-.2-3.4 2.5-6.1 5.8-6.1zm20.3 12h-14.3v10.8c.2 3-1.9 5.7-4.9 6.2-7.8 1.5-17.4 5.2-23.7 9.8-2.4 1.8-5.8 1.6-7.9-.5l-7.9-7.9-10.1 10.1 7.9 7.9c2 2 2.4 5.2.7 7.6-2.5 3.6-4.6 7.5-6.2 11.5-1.6 3.9-2.8 7.9-3.7 12.1-.4 3-2.9 5.3-6 5.3h-11.2V361h11.2c2.8 0 5.3 2 5.9 4.9 1.5 7.8 5.2 17.4 9.8 23.8 1.8 2.4 1.7 5.8-.5 7.9l-7.9 7.9 10.1 10.1 7.9-7.9c2-2 5.2-2.4 7.6-.7 3.6 2.4 7.5 4.5 11.5 6.2 3.9 1.6 7.9 2.8 12.1 3.7 3 .4 5.3 2.9 5.3 6V434h14.3v-11.1c0-2.8 2-5.4 4.9-5.9 7.8-1.5 17.4-5.2 23.7-9.8 2.4-1.8 5.8-1.7 7.9.5l7.9 7.9 10.1-10.1-7.9-7.9c-2-2-2.4-5.2-.7-7.6 4.9-7.2 8.3-15.4 9.9-24 .5-2.7 2.9-4.9 5.9-4.9H426v-14.3h-11.1c-2.8 0-5.4-2-5.9-4.9-1.5-7.8-5.2-17.4-9.8-23.7-1.8-2.4-1.7-5.8.5-7.9l7.9-7.9-10.1-10.1-7.9 7.9c-2 2-5.2 2.4-7.6.7-3.6-2.5-7.5-4.6-11.5-6.2-3.9-1.6-7.9-2.8-12.1-3.7-3-.3-5.3-2.9-5.3-6v-11.2zm-17.9 197.9c3.3.3 5.8 3.1 5.5 6.4s-3.1 5.8-6.4 5.5c-82.3-6.5-139.5-85.5-119.4-166.2-4.8-.9-6.6-6.8-3.1-10.2l9.9-9.4c3.4-3.2 9-1.5 10 3.1l2.9 14c1 4.8-4 8.7-8.4 6.6-17.4 73.2 34.5 144.3 109 150.2zM80 267.5c-2.5-2.1-2.8-5.9-.7-8.4s5.9-2.8 8.4-.7c34.2 29.2 82 37.2 124 20.7 14.1-5.6 27.9-14.2 38.7-24.3 26.1-25.9 60.3-38.8 94.6-38.7 33.4.1 66.8 12.5 92.7 37.3 3.1-3.6 9-2.3 10.3 2.4l3.7 13.6c1.2 4.5-3.1 8.8-7.8 7.2l-13.5-4.4c-4.8-1.5-5.6-7.9-1.5-10.6-23.5-22.3-53.7-33.4-83.8-33.5-31.2-.1-62.4 11.7-86.2 35.3l-.3.3c-49.8 46.2-126.7 48-178.6 3.8zm80.9-241.7c4.2-2.4 9.3.9 9 5.6C252 33.1 313.2 107.8 299 188.7c-.6 3.3-3.7 5.4-6.9 4.9-3.3-.6-5.4-3.7-4.9-6.9C300 113.3 244.8 45.4 170.3 43.4c.9 4.8-4.2 8.7-8.6 6.4l-12.8-6.5c-4.2-2.1-4.4-8.1-.3-10.5zM48.4 240.2c-4.4-2.5-3.8-8.9.8-10.7-24.1-44.4-21.2-98.5 7.3-140 15.3-22.2 37.1-39.6 62.7-49.4 3.1-1.2 6.5.4 7.7 3.5s-.4 6.5-3.5 7.7C63 74.4 30.8 141 50.8 203c2.3 7.2 5.3 14.1 8.8 20.7 3.7-3.2 9.6-.8 9.9 4.2l.8 14.3c.2 4.7-4.8 7.9-9 5.5zm334.7 238.4c2 4.6-2.2 9.5-7.1 8.2l-14.5-3.9c-4.4-1.2-6.3-7.1-2.1-10.5l10.4-9.3c3.7-3.3 9.6-.9 9.9 4 43.9-13 77-49.9 85.3-94.8 4.5-24.2 1.6-49.4-8.6-72.2-1.3-3 0-6.5 3-7.9s6.5 0 7.9 3c29.1 64.9 2.4 141.6-61.2 174.2-7.4 3.8-15.1 6.9-23 9.2zM166.2 252.2c-47.7 0-86.3-38.6-86.3-86.3s38.6-86.3 86.3-86.3 86.3 38.6 86.3 86.3c.1 47.7-38.6 86.3-86.3 86.3zm-52.5-33.8c29 29 76.1 29 105.1 0s29-76.1 0-105.1-76.1-29-105.1 0c-29 29.1-29 76.1 0 105.1z" fill="#ffffff" opacity="1" data-original="#000000"></path></g></svg>