<svg xmlns="http://www.w3.org/2000/svg" version="1.1" xmlns:xlink="http://www.w3.org/1999/xlink" width="512" height="512" x="0" y="0" viewBox="0 0 512 512" style="enable-background:new 0 0 512 512" xml:space="preserve" class=""><g><path d="M278.201 446.768a8 8 0 0 1-8 8H60.417a8 8 0 0 1 0-16h209.784a8 8 0 0 1 8 8zM60.417 166.741h114.359a8 8 0 0 0 0-16H60.417a8 8 0 0 0 0 16zm438.359 304.305-21.368 22.022a17.746 17.746 0 0 1-12.775 5.395c-4.468 0-8.94-1.666-12.392-5.017l-59.188-57.433c-3.404-3.302-5.318-7.743-5.39-12.506a17.746 17.746 0 0 1 1.975-8.449l-4.707-4.568h-15.769v38.754a8 8 0 0 1-8 8h-38.754V496a8 8 0 0 1-8 8H16.21a8 8 0 0 1-8-8V109.509a8 8 0 0 1 8-8h38.754V62.755a8 8 0 0 1 8-8h38.754V16a8 8 0 0 1 8-8h249.884a8 8 0 0 1 5.657 2.343l48.313 48.313a8 8 0 0 1 2.343 5.657v316.064l4.415 4.284a17.804 17.804 0 0 1 6.217-1.227c4.722-.053 9.259 1.708 12.663 5.013l59.186 57.432c7.044 6.837 7.213 18.127.38 25.167zm-90.745-76.026-21.688-21.045c-2.357 2.9-4.85 5.683-7.472 8.341l21.367 20.734zm-11.778-93.953c0-55.018-44.76-99.778-99.778-99.778s-99.779 44.76-99.779 99.778 44.761 99.778 99.779 99.778 99.778-44.76 99.778-99.778zM274.094 149.823h21l-21-21zm46.754-46.755h21l-21-21zm79.069 261.784V353.03a115.42 115.42 0 0 1-4.253 7.696zM367.603 56.313h21l-21-21zm-249.884-1.558h195.129a8 8 0 0 1 5.657 2.343l48.313 48.313a8 8 0 0 1 2.343 5.657v99.954a116.528 116.528 0 0 1 30.755 38.083V72.313h-40.313a8 8 0 0 1-8-8V24H117.719zm-46.754 46.754h195.129a8 8 0 0 1 5.657 2.343l48.313 48.313a8 8 0 0 1 2.343 5.657v30.396a115.008 115.008 0 0 1 30.754 11.929v-81.08h-40.313a8 8 0 0 1-8-8V70.755H70.965zM306.407 488v-71.585a115.612 115.612 0 0 1-37.089-2.794H60.417a8 8 0 0 1 0-16H232.66a116.737 116.737 0 0 1-27.261-25.146H60.417a8 8 0 0 1 0-16h134.422a115.041 115.041 0 0 1-10.123-25.146H60.417a8 8 0 0 1 0-16h121.157a116.354 116.354 0 0 1-.879-14.261c0-3.672.18-7.302.516-10.887H60.417a8 8 0 0 1 0-16h123.438a114.892 114.892 0 0 1 9.213-25.146H60.417a8 8 0 0 1 0-16h142.438a116.728 116.728 0 0 1 24.984-25.146H60.417a8 8 0 0 1 0-16h197.53a115.253 115.253 0 0 1 38.527-6.599c3.346 0 6.657.151 9.933.431v-19.897h-40.313a8 8 0 0 1-8-8v-40.313H24.21V488zm46.755-46.755v-39.259a115.008 115.008 0 0 1-30.754 11.929v27.329h30.754zm134.092 16.115-59.186-57.432a1.759 1.759 0 0 0-1.249-.496h-.03a1.763 1.763 0 0 0-1.263.533l-21.37 22.022a1.77 1.77 0 0 0-.496 1.279c.005.346.102.845.533 1.263l59.188 57.434c.7.68 1.864.662 2.543-.038l21.369-22.022c.68-.699.661-1.863-.039-2.543zM380.997 301.067c0 46.606-37.917 84.523-84.523 84.523s-84.523-37.917-84.523-84.523 37.917-84.522 84.523-84.522 84.523 37.916 84.523 84.522zm-16 0c0-37.783-30.739-68.522-68.523-68.522s-68.523 30.739-68.523 68.522c0 37.784 30.739 68.523 68.523 68.523s68.523-30.738 68.523-68.523z" fill="#ffffff" opacity="1" data-original="#000000" class=""></path></g></svg>