<svg xmlns="http://www.w3.org/2000/svg" version="1.1" xmlns:xlink="http://www.w3.org/1999/xlink" width="512" height="512" x="0" y="0" viewBox="0 0 1707 1707" style="enable-background:new 0 0 512 512" xml:space="preserve" fill-rule="evenodd" class=""><g><path d="M527 1486c-22 0-39-16-40-38l-48-933-117 439c-5 17-21 29-39 29H40c-53 0-53-80 0-80h213l175-653c11-44 76-37 79 8l47 934 74-276c5-17 21-29 39-29h99l69-254c10-40 68-39 77 2l88 404 89-236c6-16 21-26 38-26h540c52 0 52 80 0 80h-513l-127 337c-14 37-68 33-77-6l-81-376-34 125c-5 17-20 30-38 30H697l-132 490c-4 17-20 29-38 29z" fill="#20082e" opacity="1" data-original="#000000"></path></g></svg>