<svg xmlns="http://www.w3.org/2000/svg" version="1.1" xmlns:xlink="http://www.w3.org/1999/xlink" width="512" height="512" x="0" y="0" viewBox="0 0 512 512" style="enable-background:new 0 0 512 512" xml:space="preserve" class=""><g><path d="M150.829 83.074c34.904-28.181 77.118-43.076 122.078-43.076 56.691 0 110.439 24.666 147.463 67.673a20.064 20.064 0 0 0 3.013 2.83h-22.004c-11.046 0-20 8.954-20 20s8.954 20 20 20h69.713c11.046 0 20-8.954 20-20V62.797c0-11.046-8.954-20-20-20s-20 8.954-20 20v19.302c-.139-.173-.261-.355-.407-.524C406.055 29.732 341.258-.002 272.907-.002c-53.431 0-105.709 18.451-147.205 51.954-8.595 6.938-9.937 19.53-2.998 28.125 6.939 8.594 19.532 9.938 28.125 2.997zM34.845 166.117l16.707-9.667c-.08.207-.176.404-.25.615-22.522 64.593-15.808 135.569 18.423 194.73 26.759 46.248 68.911 82.257 118.691 101.396a19.957 19.957 0 0 0 7.173 1.337c8.036 0 15.615-4.879 18.672-12.828 3.964-10.31-1.181-21.881-11.491-25.845-41.872-16.098-75.906-45.177-98.422-84.092-28.393-49.07-33.96-107.945-15.276-161.528.463-1.327.774-2.669.949-4.01l11.011 19.03c3.708 6.407 10.425 9.988 17.33 9.987 3.399 0 6.845-.868 9.998-2.692 9.561-5.532 12.826-17.767 7.295-27.327l-34.913-60.34c-5.533-9.562-17.767-12.827-27.328-7.295l-58.602 33.907c-9.561 5.532-12.826 17.767-7.295 27.327 5.533 9.562 17.765 12.828 27.328 7.295zm446.57 15.232c-10.909 1.732-18.349 11.98-16.616 22.889 7.036 44.305-1.089 88.327-23.495 127.305-28.254 49.149-76.425 83.454-132.162 94.118-1.38.264-2.698.667-3.945 1.186l10.957-19.061c5.505-9.576 2.205-21.802-7.371-27.307-9.578-5.504-21.803-2.205-27.307 7.372l-34.743 60.438a19.999 19.999 0 0 0 7.371 27.307l58.696 33.742a19.908 19.908 0 0 0 9.949 2.664c6.925 0 13.659-3.601 17.357-10.036 5.505-9.576 2.205-21.802-7.371-27.307l-16.73-9.618c.218-.034.436-.052.654-.093 67.188-12.854 125.258-54.212 159.322-113.47 26.629-46.322 36.688-100.841 28.323-153.514-1.732-10.908-11.981-18.353-22.889-16.615z" fill="#20082e" opacity="1" data-original="#000000" class=""></path></g></svg>