<svg xmlns="http://www.w3.org/2000/svg" version="1.1" xmlns:xlink="http://www.w3.org/1999/xlink" width="512" height="512" x="0" y="0" viewBox="0 0 64 64" style="enable-background:new 0 0 512 512" xml:space="preserve"><g><path d="m16.508 28.796 13.259 8.323.471.296c1.036.652 2.485.652 3.524 0l.471-.296 13.258-8.322 3.762-2.362 2.866-1.799c.833-.97 1.311-2.176 1.311-3.448 0-1.843-.985-3.561-2.636-4.597L35.418 5.684c-2.044-1.282-4.791-1.283-6.836 0L11.205 16.591c-1.65 1.036-2.636 2.754-2.636 4.597 0 1.271.478 2.477 1.31 3.446l2.868 1.8zm16.501.848a1.989 1.989 0 0 1-2.019 0l-5.044-3.139-5.767-3.589c-2.183-1.359-.173-4.818 2.019-3.454l9.802 6.1 9.802-6.1c2.194-1.365 4.2 2.097 2.019 3.454l-5.585 3.476-5.227 3.252zM35.889 51.9c-2.263 1.42-5.527 1.412-7.777-.001l-15.39-9.659-3.39-2.128a5.222 5.222 0 0 0-.763 2.698c0 1.843.985 3.562 2.636 4.599l17.376 10.906c2.014 1.264 4.786 1.287 6.836.001l17.377-10.908c1.65-1.036 2.636-2.755 2.636-4.598 0-.96-.273-1.883-.763-2.697l-3.39 2.128L35.889 51.9z" fill="#ffffff" opacity="1" data-original="#000000"></path><path d="m16.281 39.751 13.958 8.761c1.038.653 2.486.65 3.523.001l13.958-8.762 3.763-2.362 1.689-1.06c1.418-1.05 2.259-2.634 2.259-4.328 0-1.042-.324-2.04-.897-2.901l-3.389 2.127-9.387 5.893-5.87 3.685c-1.163.729-2.526 1.094-3.889 1.094s-2.725-.364-3.888-1.094l-5.87-3.685-9.388-5.893L9.464 29.1a5.238 5.238 0 0 0-.895 2.9c0 1.693.84 3.275 2.255 4.325l1.695 1.064z" fill="#ffffff" opacity="1" data-original="#000000"></path></g></svg>