<svg xmlns="http://www.w3.org/2000/svg" version="1.1" xmlns:xlink="http://www.w3.org/1999/xlink" width="512" height="512" x="0" y="0" viewBox="0 0 512 512.001" style="enable-background:new 0 0 512 512" xml:space="preserve"><g><path d="M382.91 102.676C363.344 41.617 306.55 0 242.277 0 168.567 0 107.52 53.977 96.461 124.531 44.047 122.023 0 164.06 0 216.547c0 50.793 41.324 92.117 92.117 92.117h309.27c.691 0 1.383-.047 2.066-.14 50.692-6.985 88.918-51.247 88.918-102.954 0-59.23-50.086-106.547-109.46-102.894zm17.387 175.676H92.117c-34.078 0-61.805-27.727-61.805-61.805 0-39.578 37.028-69.402 76.141-60.117 9.281 2.203 18.223-4.61 18.64-14.078 2.774-62.825 54.247-112.04 117.184-112.04 54.813 0 103.02 38.817 114.63 92.297 1.757 8.098 9.702 13.286 17.82 11.637 45.355-9.187 87.332 25.629 87.332 71.324 0 36.309-26.48 67.422-61.762 72.782zM385.215 317.262l-13.746 8.332c-10.078 6.047-5.914 22.457 4.984 22.457v44.742c0 14.031 27.535 14.32 27.535 0v-66.336c0-9.18-12.39-13.258-18.773-9.195zM296.39 315.926c-19.527 0-31.183 11.308-31.183 30.246v27.64c0 18.942 11.656 30.247 31.184 30.247 19.886 0 31.289-11.024 31.289-30.247v-27.64c0-19.223-11.403-30.246-31.29-30.246zm3.755 30.246v27.64c0 4.13-1.106 4.797-3.754 4.797-2.48 0-3.649-.472-3.649-4.796v-27.641c0-4.324 1.168-4.797 3.649-4.797 2.648 0 3.754.668 3.754 4.797zM227.168 392.793v-66.336c0-9.18-12.383-13.262-18.773-9.195l-13.747 8.332c-10.074 6.043-5.914 22.457 4.985 22.457v44.742c0 14.031 27.535 14.32 27.535 0zM119.57 315.926c-19.527 0-31.183 11.308-31.183 30.246v27.64c0 18.942 11.656 30.247 31.183 30.247 19.887 0 31.29-11.024 31.29-30.247v-27.64c0-19.223-11.403-30.246-31.29-30.246zm3.754 30.246v27.64c0 4.13-1.105 4.797-3.754 4.797-2.48 0-3.648-.472-3.648-4.796v-27.641c0-4.324 1.168-4.797 3.648-4.797 2.649 0 3.754.668 3.754 4.797zM385.215 425.203l-13.746 8.332c-10.078 6.047-5.914 22.457 4.984 22.457v44.742c0 14.032 27.535 14.32 27.535 0v-66.332c0-9.18-12.39-13.261-18.773-9.199zM296.39 423.867c-19.527 0-31.183 11.309-31.183 30.246v27.64c0 18.942 11.656 30.247 31.184 30.247 19.886 0 31.289-11.023 31.289-30.246v-27.64c0-19.223-11.403-30.247-31.29-30.247zm3.755 30.246v27.64c0 4.13-1.106 4.798-3.754 4.798-2.48 0-3.649-.473-3.649-4.797v-27.64c0-4.325 1.168-4.798 3.649-4.798 2.648 0 3.754.668 3.754 4.797zM119.984 425.203l-13.746 8.332c-5.406 3.246-6.535 9.352-5.258 13.969 2.454 8.855 10.141 8.45 10.243 8.488v44.742c0 6.989 6.945 10.641 13.804 10.641 6.614 0 13.73-3.328 13.73-10.64v-66.333c0-9.093-12.292-13.324-18.773-9.199zM207.98 423.867c-19.527 0-31.183 11.309-31.183 30.246v27.64c0 18.942 11.656 30.247 31.183 30.247 19.887 0 31.29-11.023 31.29-30.246v-27.64c0-19.223-11.407-30.247-31.29-30.247zm3.754 30.246v27.64c0 4.13-1.105 4.798-3.754 4.798-2.48 0-3.648-.473-3.648-4.797v-27.64c0-4.325 1.168-4.798 3.648-4.798 2.649 0 3.754.668 3.754 4.797zm0 0" fill="#20082e" opacity="1" data-original="#000000"></path></g></svg>