<svg xmlns="http://www.w3.org/2000/svg" version="1.1" xmlns:xlink="http://www.w3.org/1999/xlink" width="512" height="512" x="0" y="0" viewBox="0 0 96 96" style="enable-background:new 0 0 512 512" xml:space="preserve" class=""><g><g data-name="Science Technology"><path d="M67.71 67.32H37.19a4.11 4.11 0 0 1-4.1-4.11V32.7a4.11 4.11 0 0 1 4.1-4.11h30.52a4.11 4.11 0 0 1 4.1 4.11v30.51a4.11 4.11 0 0 1-4.1 4.11zM37.19 30.59a2.11 2.11 0 0 0-2.1 2.11v30.51a2.1 2.1 0 0 0 2.1 2.11h30.52a2.1 2.1 0 0 0 2.1-2.11V32.7a2.11 2.11 0 0 0-2.1-2.11z" fill="#20082e" opacity="1" data-original="#000000" class=""></path><path d="M64.6 61.11H40.3a1 1 0 0 1-1-1v-24.3a1 1 0 0 1 1-1h24.3a1 1 0 0 1 1 1v24.3a1 1 0 0 1-1 1zm-23.3-2h22.3v-22.3H41.3zM34.09 44.09H22.62a1 1 0 0 1 0-2h11.47a1 1 0 0 1 0 2zM34.09 48.79H17.65a1 1 0 0 1 0-2h16.44a1 1 0 0 1 0 2zM34.09 53.5H22.62a1 1 0 0 1 0-2h11.47a1 1 0 0 1 0 2zM82.28 53.5H70.81a1 1 0 0 1 0-2h11.47a1 1 0 0 1 0 2zM87.25 48.79H70.81a1 1 0 0 1 0-2h16.44a1 1 0 0 1 0 2zM82.28 44.09H70.81a1 1 0 0 1 0-2h11.47a1 1 0 0 1 0 2zM47.74 78.79a1 1 0 0 1-1-1V66.32a1 1 0 0 1 2 0v11.47a1 1 0 0 1-1 1zM52.45 83.76a1 1 0 0 1-1-1V66.32a1 1 0 0 1 2 0v16.44a1 1 0 0 1-1 1zM57.16 78.79a1 1 0 0 1-1-1V66.32a1 1 0 0 1 2 0v11.47a1 1 0 0 1-1 1zM57.16 30.59a1 1 0 0 1-1-1V18.13a1 1 0 1 1 2 0v11.46a1 1 0 0 1-1 1zM52.45 30.59a1 1 0 0 1-1-1V13.15a1 1 0 0 1 2 0v16.44a1 1 0 0 1-1 1zM47.74 30.59a1 1 0 0 1-1-1V18.13a1 1 0 0 1 2 0v11.46a1 1 0 0 1-1 1zM14.86 79.41l-.13-18a4.48 4.48 0 0 1 4.44-4.5L34 56.79a1 1 0 0 1 1 1 1 1 0 0 1-1 1l-14.83.1a2.47 2.47 0 0 0-2.46 2.49l.13 18a1 1 0 0 1-2 0z" fill="#20082e" opacity="1" data-original="#000000" class=""></path><path d="M29.21 73.74h-2.42a3.46 3.46 0 0 1-3.46-3.46v-5.36a3.46 3.46 0 0 1 3.46-3.46h7.3a1 1 0 0 1 0 2h-7.3a1.46 1.46 0 0 0-1.46 1.46v5.36a1.46 1.46 0 0 0 1.46 1.46h2.42a1 1 0 0 1 0 2zM34.09 38.6H18.32a4.48 4.48 0 0 1-4.47-4.47v-2.49a2.48 2.48 0 0 0-2.47-2.47H7.29a1 1 0 1 1 0-2h4.09a4.47 4.47 0 0 1 4.47 4.47v2.49a2.48 2.48 0 0 0 2.47 2.47h15.77a1 1 0 0 1 0 2z" fill="#20082e" opacity="1" data-original="#000000" class=""></path><path d="M34.09 34.46h-4.75A4.47 4.47 0 0 1 24.87 30v-4.57a1 1 0 0 1 2 0V30a2.47 2.47 0 0 0 2.47 2.47h4.75a1 1 0 0 1 0 2zM28.85 88.5a1 1 0 0 1-1-1v-4.06A3.46 3.46 0 0 1 31.31 80h5.4a1.46 1.46 0 0 0 1.46-1.46V66.32a1 1 0 0 1 2 0v12.2A3.46 3.46 0 0 1 36.71 82h-5.4a1.46 1.46 0 0 0-1.46 1.46v4.04a1 1 0 0 1-1 1zM43.36 75.16a1 1 0 0 1-1-1v-7.84a1 1 0 0 1 2 0v7.84a1 1 0 0 1-1 1zM60.71 88.63a1 1 0 0 1-1-1v-3.58A4.44 4.44 0 0 1 61 80.89L62.88 79a2.49 2.49 0 0 0 .72-1.74v-11a1 1 0 0 1 2 0v11a4.47 4.47 0 0 1-1.31 3.16l-1.85 1.88a2.46 2.46 0 0 0-.73 1.75v3.58a1 1 0 0 1-1 1zM39.17 30.59a1 1 0 0 1-1-1v-3.21a3.14 3.14 0 0 0-.93-2.24l-3.56-3.57a5.14 5.14 0 0 1-1.52-3.66V8.57a1 1 0 0 1 2 0v8.34a3.14 3.14 0 0 0 .93 2.24l3.57 3.57a5.18 5.18 0 0 1 1.51 3.66v3.21a1 1 0 0 1-1 1zM43.36 30.59a1 1 0 0 1-1-1v-21a1 1 0 0 1 2 0v21a1 1 0 0 1-1 1zM60.88 30.59a1 1 0 0 1-1-1V13.15a1 1 0 0 1 1-1h2.72V2.27a1 1 0 0 1 2 0v10.88a1 1 0 0 1-1 1h-2.72v15.44a1 1 0 0 1-1 1zM15.86 86.52a4.06 4.06 0 1 1 4.05-4.06 4.06 4.06 0 0 1-4.05 4.06zm0-6.12a2.06 2.06 0 1 0 2.05 2.06 2.06 2.06 0 0 0-2.05-2.06zM90.45 51.75a4.06 4.06 0 1 1 4.06-4.06 4.06 4.06 0 0 1-4.06 4.06zm0-6.11a2.06 2.06 0 1 0 2.06 2 2.05 2.05 0 0 0-2.06-2zM4.23 32.23a4.06 4.06 0 1 1 4.06-4.06 4.06 4.06 0 0 1-4.06 4.06zm0-6.11a2.06 2.06 0 1 0 2.06 2.05 2.05 2.05 0 0 0-2.06-2.05z" fill="#20082e" opacity="1" data-original="#000000" class=""></path><path d="M33.16 9.57a4.06 4.06 0 1 1 4.06-4.06 4.06 4.06 0 0 1-4.06 4.06zm0-6.11a2.06 2.06 0 1 0 2.06 2.05 2.06 2.06 0 0 0-2.06-2.05zM25.87 26.34a4.06 4.06 0 1 1 4.05-4.06 4.06 4.06 0 0 1-4.05 4.06zm0-6.11a2.06 2.06 0 1 0 2.05 2.05 2.05 2.05 0 0 0-2.05-2.05zM60.71 94.73a4.05 4.05 0 1 1 4.05-4.4 4.06 4.06 0 0 1-4.05 4.4zm0-6.11a2.06 2.06 0 1 0 2 1.88 2.06 2.06 0 0 0-1.99-1.88zM92.39 69H80.57a1 1 0 0 1-1-1v-9.21h-8.76a1 1 0 0 1 0-2h9.76a1 1 0 0 1 1 1V67h10.82a1 1 0 1 1 0 2z" fill="#20082e" opacity="1" data-original="#000000" class=""></path><path d="M75.87 81.59a1 1 0 0 1-1-1V63.46h-4.06a1 1 0 0 1 0-2h5.06a1 1 0 0 1 1 1v18.13a1 1 0 0 1-1 1zM86.4 38.6H70.81a1 1 0 0 1 0-2H85.4v-4.93a1 1 0 0 1 1-1h8.42a1 1 0 0 1 0 2H87.4v4.93a1 1 0 0 1-1 1z" fill="#20082e" opacity="1" data-original="#000000" class=""></path><path d="M80.65 34.46h-9.84a1 1 0 0 1 0-2h8.84V20.23h-3.78a1 1 0 0 1-1-1V9.85a1 1 0 1 1 2 0v8.38h3.78a1 1 0 0 1 1 1v14.23a1 1 0 0 1-1 1z" fill="#20082e" opacity="1" data-original="#000000" class=""></path><path d="M64.6 30.59a1 1 0 0 1-1-1v-7.94a1 1 0 0 1 1-1h5.74V6.73a1 1 0 0 1 2 0v14.92a1 1 0 0 1-1 1H65.6v6.94a1 1 0 0 1-1 1zM60.88 75.54a1 1 0 0 1-1-1v-8.22a1 1 0 0 1 2 0v8.22a1 1 0 0 1-1 1z" fill="#20082e" opacity="1" data-original="#000000" class=""></path></g></g></svg>