<svg xmlns="http://www.w3.org/2000/svg" version="1.1" xmlns:xlink="http://www.w3.org/1999/xlink" width="512" height="512" x="0" y="0" viewBox="0 0 64 64" style="enable-background:new 0 0 512 512" xml:space="preserve" class=""><g><path fill="#ffffff" d="M50.62 49.05h-2.98c-.54 0-.97-.43-.97-.97s.43-.97.97-.97h2.98c6.31 0 11.44-5.13 11.44-11.44a11.413 11.413 0 0 0-9.45-11.25.983.983 0 0 1-.8-1.08c.07-.49.1-.95.1-1.39 0-6.18-5.03-11.21-11.21-11.21-2.51 0-4.9.83-6.91 2.39-.35.28-.85.27-1.2 0-2.71-2.15-5.95-3.28-9.38-3.28-8.34 0-15.12 6.78-15.12 15.11 0 .34-.18.67-.48.85-3.51 2.05-5.69 5.83-5.69 9.88 0 3.05 1.19 5.93 3.35 8.09s5.04 3.35 8.09 3.35h2.98c.54 0 .97.43.97.97s-.43.97-.97.97h-2.98c-3.57 0-6.93-1.39-9.46-3.92C1.39 42.6 0 39.24 0 35.67c0-4.55 2.35-8.81 6.18-11.26C6.47 15.24 14 7.89 23.22 7.89c3.62 0 7.05 1.12 9.99 3.25 2.22-1.55 4.8-2.36 7.5-2.36 7.25 0 13.15 5.9 13.15 13.15 0 .25-.01.5-.02.75 2.71.66 5.17 2.18 7 4.33A13.44 13.44 0 0 1 64 35.67c0 7.37-6 13.38-13.38 13.38z" opacity="1" data-original="#e14831" class=""></path><path fill="#ffffff" d="M43.37 56.11H20.71c-1.79 0-3.29-1.39-3.41-3.17-.04-.53.37-1 .9-1.03s1 .37 1.03.9c.05.77.7 1.37 1.48 1.37h22.66c.78 0 1.42-.6 1.48-1.37.04-.53.5-.93 1.03-.9.53.04.94.5.9 1.03-.12 1.77-1.62 3.17-3.41 3.17zM18.26 45.49c-.54 0-.97-.43-.97-.97v-2.53c0-.54.43-.97.97-.97s.97.43.97.97v2.53c0 .53-.44.97-.97.97zM45.83 45.49c-.54 0-.97-.43-.97-.97v-2.53c0-.54.43-.97.97-.97s.97.43.97.97v2.53c0 .53-.44.97-.97.97zM18.27 23.73h-.07a.97.97 0 0 1-.9-1.03c.12-1.78 1.62-3.17 3.41-3.17h22.66c1.79 0 3.29 1.39 3.41 3.17.04.53-.37 1-.9 1.03s-1-.37-1.03-.9c-.05-.77-.7-1.37-1.48-1.37H20.71c-.77 0-1.42.6-1.48 1.37-.03.51-.46.9-.96.9zM18.26 34.61c-.54 0-.97-.43-.97-.97V31.1c0-.54.43-.97.97-.97s.97.43.97.97v2.54c0 .53-.44.97-.97.97zM45.83 34.61c-.54 0-.97-.43-.97-.97V31.1c0-.54.43-.97.97-.97s.97.43.97.97v2.54c0 .53-.44.97-.97.97z" opacity="1" data-original="#353634" class=""></path><path fill="#ffffff" d="M46.48 32.07H17.52c-1.17 0-2.13-.95-2.13-2.13v-6.03c0-1.17.95-2.13 2.13-2.13h28.97c1.17 0 2.13.95 2.13 2.13v6.03a2.14 2.14 0 0 1-2.14 2.13zm-28.96-8.34c-.1 0-.19.08-.19.19v6.03c0 .1.08.19.19.19h28.97c.1 0 .19-.08.19-.19v-6.03c0-.1-.08-.19-.19-.19z" opacity="1" data-original="#353634" class=""></path><path fill="#ffffff" d="M21.84 29.17c-1.39 0-2.51-1.13-2.51-2.51s1.13-2.51 2.51-2.51 2.51 1.13 2.51 2.51c.01 1.38-1.12 2.51-2.51 2.51zm0-3.08a.57.57 0 1 0 .57.57.557.557 0 0 0-.57-.57z" opacity="1" data-original="#e14831" class=""></path><path fill="#ffffff" d="M26.38 29.17c-1.39 0-2.51-1.13-2.51-2.51s1.13-2.51 2.51-2.51 2.51 1.13 2.51 2.51-1.13 2.51-2.51 2.51zm0-3.08a.57.57 0 1 0 0 1.14.57.57 0 0 0 0-1.14z" opacity="1" data-original="#e14831" class=""></path><path fill="#ffffff" d="M30.91 29.17c-1.39 0-2.51-1.13-2.51-2.51s1.13-2.51 2.51-2.51 2.51 1.13 2.51 2.51-1.12 2.51-2.51 2.51zm0-3.08a.57.57 0 1 0 .57.57c0-.32-.25-.57-.57-.57z" opacity="1" data-original="#e14831" class=""></path><path fill="#ffffff" d="M46.48 42.95H17.52c-1.17 0-2.13-.95-2.13-2.13V34.8c0-1.17.95-2.13 2.13-2.13h28.97c1.17 0 2.13.95 2.13 2.13v6.03a2.138 2.138 0 0 1-2.14 2.12zm-28.96-8.34c-.1 0-.19.08-.19.19v6.03c0 .1.08.19.19.19h28.97c.1 0 .19-.08.19-.19V34.8c0-.1-.08-.19-.19-.19z" opacity="1" data-original="#353634" class=""></path><path fill="#ffffff" d="M21.84 40.05c-1.39 0-2.51-1.13-2.51-2.51s1.13-2.51 2.51-2.51 2.51 1.13 2.51 2.51a2.499 2.499 0 0 1-2.51 2.51zm0-3.08a.57.57 0 1 0 .57.57.563.563 0 0 0-.57-.57z" opacity="1" data-original="#e14831" class=""></path><path fill="#ffffff" d="M26.38 40.05c-1.39 0-2.51-1.13-2.51-2.51s1.13-2.51 2.51-2.51 2.51 1.13 2.51 2.51c0 1.39-1.13 2.51-2.51 2.51zm0-3.08a.57.57 0 1 0 0 1.14.57.57 0 0 0 0-1.14z" opacity="1" data-original="#e14831" class=""></path><path fill="#ffffff" d="M30.91 40.05c-1.39 0-2.51-1.13-2.51-2.51s1.13-2.51 2.51-2.51 2.51 1.13 2.51 2.51c0 1.39-1.12 2.51-2.51 2.51zm0-3.08a.57.57 0 1 0 0 1.14.57.57 0 0 0 0-1.14z" opacity="1" data-original="#e14831" class=""></path><path fill="#ffffff" d="M46.48 53.84H17.52c-1.17 0-2.13-.95-2.13-2.13v-6.03c0-1.17.95-2.13 2.13-2.13h28.97c1.17 0 2.13.95 2.13 2.13v6.03a2.147 2.147 0 0 1-2.14 2.13zm-28.96-8.35c-.1 0-.19.08-.19.19v6.03c0 .1.08.19.19.19h28.97c.1 0 .19-.08.19-.19v-6.03c0-.1-.08-.19-.19-.19z" opacity="1" data-original="#353634" class=""></path><path fill="#ffffff" d="M21.84 50.93c-1.39 0-2.51-1.13-2.51-2.51s1.13-2.51 2.51-2.51 2.51 1.13 2.51 2.51a2.499 2.499 0 0 1-2.51 2.51zm0-3.08a.57.57 0 1 0 .57.57.563.563 0 0 0-.57-.57z" opacity="1" data-original="#e14831" class=""></path><path fill="#ffffff" d="M26.38 50.93c-1.39 0-2.51-1.13-2.51-2.51s1.13-2.51 2.51-2.51 2.51 1.13 2.51 2.51c0 1.39-1.13 2.51-2.51 2.51zm0-3.08a.57.57 0 1 0 0 1.14.57.57 0 0 0 0-1.14z" opacity="1" data-original="#e14831" class=""></path><path fill="#ffffff" d="M30.91 50.93c-1.39 0-2.51-1.13-2.51-2.51s1.13-2.51 2.51-2.51 2.51 1.13 2.51 2.51c0 1.39-1.12 2.51-2.51 2.51zm0-3.08a.57.57 0 1 0 0 1.14.57.57 0 0 0 0-1.14z" opacity="1" data-original="#e14831" class=""></path></g></svg>